<?xml version="1.0" encoding="UTF-8" standalone="no"?>
<!DOCTYPE svg PUBLIC "-//W3C//DTD SVG 1.1//EN" "http://www.w3.org/Graphics/SVG/1.1/DTD/svg11.dtd">
<svg width="100%" height="100%" viewBox="0 0 1280 400" version="1.1" xmlns="http://www.w3.org/2000/svg" xmlns:xlink="http://www.w3.org/1999/xlink" xml:space="preserve" style="fill-rule:evenodd;clip-rule:evenodd;stroke-linejoin:round;stroke-miterlimit:1.41421;">
    <g id="Logo-Terragraph" transform="matrix(1.50873,0,0,1.50873,-295.109,-355.188)">
        <g transform="matrix(1,0,0,1,35,64.1534)">
            <path d="M329.868,283.239L329.868,271.815L385.068,271.815L385.068,283.239L363.948,283.239L363.948,335.847L350.316,335.847L350.316,283.239L329.868,283.239Z" style="fill:rgb(81,144,215);fill-rule:nonzero;"/>
            <path d="M440.076,283.239L422.316,283.239C420.012,283.239 418.044,283.319 416.412,283.479C414.78,283.639 413.372,283.895 412.188,284.247C411.004,284.599 409.996,285.079 409.164,285.687C408.332,286.295 407.564,287.047 406.86,287.943C406.348,288.583 405.948,289.191 405.66,289.767C405.372,290.343 405.132,290.999 404.94,291.735C404.748,292.471 404.588,293.351 404.46,294.375C404.332,295.399 404.204,296.711 404.076,298.311L440.076,298.311L440.076,309.735L404.076,309.735C404.332,312.487 404.844,314.791 405.612,316.647C406.38,318.503 407.5,320.007 408.972,321.159C410.444,322.311 412.316,323.143 414.588,323.655C416.86,324.167 419.628,324.423 422.892,324.423L440.076,324.423L440.076,335.847L422.316,335.847C418.924,335.847 415.932,335.719 413.34,335.463C410.748,335.207 408.46,334.807 406.476,334.263C404.492,333.719 402.748,332.983 401.244,332.055C399.74,331.127 398.348,329.991 397.068,328.647C394.316,325.767 392.22,322.183 390.78,317.895C389.34,313.607 388.62,308.807 388.62,303.495C388.62,291.911 392.236,283.079 399.468,276.999C400.62,276.039 401.772,275.223 402.924,274.551C404.076,273.879 405.34,273.351 406.716,272.967C408.092,272.583 409.612,272.295 411.276,272.103C412.94,271.911 414.86,271.815 417.036,271.815L440.076,271.815L440.076,283.239Z" style="fill:rgb(81,144,215);fill-rule:nonzero;"/>
            <path d="M464.46,335.847L450.828,335.847L450.828,271.815L482.124,271.815C486.988,271.815 490.924,272.103 493.932,272.679C496.94,273.255 499.404,274.215 501.324,275.559C503.564,277.095 505.308,279.095 506.556,281.559C507.804,284.023 508.428,286.727 508.428,289.671C508.428,299.335 504.364,305.575 496.236,308.391C500.012,309.415 502.828,311.383 504.684,314.295C506.54,317.207 507.596,321.159 507.852,326.151C507.98,327.623 508.092,328.855 508.188,329.847C508.284,330.839 508.38,331.671 508.476,332.343C508.572,333.015 508.7,333.623 508.86,334.167C509.02,334.711 509.196,335.271 509.388,335.847L494.124,335.847C493.868,335.143 493.708,334.567 493.644,334.119C493.58,333.671 493.484,333.095 493.356,332.391C493.228,331.495 493.116,330.487 493.02,329.367C492.924,328.247 492.844,327.367 492.78,326.727C492.46,323.847 491.948,321.431 491.244,319.479C490.54,317.527 489.516,315.959 488.172,314.775C486.828,313.591 485.116,312.759 483.036,312.279C480.956,311.799 478.412,311.559 475.404,311.559L464.46,311.559L464.46,335.847ZM483.564,300.135C486.892,300.135 489.228,299.591 490.572,298.503C492.428,297.031 493.356,294.631 493.356,291.303C493.356,287.335 491.788,284.807 488.652,283.719C487.5,283.399 485.804,283.239 483.564,283.239L464.46,283.239L464.46,300.135L483.564,300.135Z" style="fill:rgb(81,144,215);fill-rule:nonzero;"/>
            <path d="M533.1,335.847L519.468,335.847L519.468,271.815L550.764,271.815C555.628,271.815 559.564,272.103 562.572,272.679C565.58,273.255 568.044,274.215 569.964,275.559C572.204,277.095 573.948,279.095 575.196,281.559C576.444,284.023 577.068,286.727 577.068,289.671C577.068,299.335 573.004,305.575 564.876,308.391C568.652,309.415 571.468,311.383 573.324,314.295C575.18,317.207 576.236,321.159 576.492,326.151C576.62,327.623 576.732,328.855 576.828,329.847C576.924,330.839 577.02,331.671 577.116,332.343C577.212,333.015 577.34,333.623 577.5,334.167C577.66,334.711 577.836,335.271 578.028,335.847L562.764,335.847C562.508,335.143 562.348,334.567 562.284,334.119C562.22,333.671 562.124,333.095 561.996,332.391C561.868,331.495 561.756,330.487 561.66,329.367C561.564,328.247 561.484,327.367 561.42,326.727C561.1,323.847 560.588,321.431 559.884,319.479C559.18,317.527 558.156,315.959 556.812,314.775C555.468,313.591 553.756,312.759 551.676,312.279C549.596,311.799 547.052,311.559 544.044,311.559L533.1,311.559L533.1,335.847ZM552.204,300.135C555.532,300.135 557.868,299.591 559.212,298.503C561.068,297.031 561.996,294.631 561.996,291.303C561.996,287.335 560.428,284.807 557.292,283.719C556.14,283.399 554.444,283.239 552.204,283.239L533.1,283.239L533.1,300.135L552.204,300.135Z" style="fill:rgb(81,144,215);fill-rule:nonzero;"/>
            <path d="M608.46,271.815L624.108,271.815L650.604,335.847L634.668,335.847L628.524,320.967L604.14,320.967L597.996,335.847L581.964,335.847L608.46,271.815ZM607.212,309.543L625.452,309.543L616.332,287.175L607.212,309.543Z" style="fill:rgb(81,144,215);fill-rule:nonzero;"/>
            <path d="M709.644,297.831L709.644,335.847L681.036,335.847C678.54,335.847 676.332,335.767 674.412,335.607C672.492,335.447 670.764,335.175 669.228,334.791C667.692,334.407 666.284,333.895 665.004,333.255C663.724,332.615 662.508,331.815 661.356,330.855C658.092,328.295 655.596,324.743 653.868,320.199C652.14,315.655 651.276,310.279 651.276,304.071C651.276,297.927 652.124,292.583 653.82,288.039C655.516,283.495 657.996,279.911 661.26,277.287C665.868,273.639 672.652,271.815 681.612,271.815L709.644,271.815L709.644,283.239L683.244,283.239C677.164,283.239 672.812,284.759 670.188,287.799C667.564,290.839 666.252,295.847 666.252,302.823C666.252,306.855 666.652,310.439 667.452,313.575C668.252,316.711 669.388,319.047 670.86,320.583C673.356,323.143 677.644,324.423 683.724,324.423L696.012,324.423L696.012,309.255L678.156,309.255L678.156,297.831L709.644,297.831Z" style="fill:white;fill-rule:nonzero;"/>
            <path d="M734.796,335.847L721.164,335.847L721.164,271.815L752.46,271.815C757.324,271.815 761.26,272.103 764.268,272.679C767.276,273.255 769.74,274.215 771.66,275.559C773.9,277.095 775.644,279.095 776.892,281.559C778.14,284.023 778.764,286.727 778.764,289.671C778.764,299.335 774.7,305.575 766.572,308.391C770.348,309.415 773.164,311.383 775.02,314.295C776.876,317.207 777.932,321.159 778.188,326.151C778.316,327.623 778.428,328.855 778.524,329.847C778.62,330.839 778.716,331.671 778.812,332.343C778.908,333.015 779.036,333.623 779.196,334.167C779.356,334.711 779.532,335.271 779.724,335.847L764.46,335.847C764.204,335.143 764.044,334.567 763.98,334.119C763.916,333.671 763.82,333.095 763.692,332.391C763.564,331.495 763.452,330.487 763.356,329.367C763.26,328.247 763.18,327.367 763.116,326.727C762.796,323.847 762.284,321.431 761.58,319.479C760.876,317.527 759.852,315.959 758.508,314.775C757.164,313.591 755.452,312.759 753.372,312.279C751.292,311.799 748.748,311.559 745.74,311.559L734.796,311.559L734.796,335.847ZM753.9,300.135C757.228,300.135 759.564,299.591 760.908,298.503C762.764,297.031 763.692,294.631 763.692,291.303C763.692,287.335 762.124,284.807 758.988,283.719C757.836,283.399 756.14,283.239 753.9,283.239L734.796,283.239L734.796,300.135L753.9,300.135Z" style="fill:white;fill-rule:nonzero;"/>
            <path d="M810.156,271.815L825.804,271.815L852.3,335.847L836.364,335.847L830.22,320.967L805.836,320.967L799.692,335.847L783.66,335.847L810.156,271.815ZM808.908,309.543L827.148,309.543L818.028,287.175L808.908,309.543Z" style="fill:white;fill-rule:nonzero;"/>
            <path d="M872.844,335.847L859.212,335.847L859.212,271.815L891.18,271.815C893.996,271.815 896.396,271.895 898.38,272.055C900.364,272.215 902.076,272.519 903.516,272.967C904.956,273.415 906.22,274.023 907.308,274.791C908.396,275.559 909.484,276.519 910.572,277.671C914.412,281.831 916.332,286.823 916.332,292.647C916.332,296.039 915.708,299.207 914.46,302.151C913.212,305.095 911.468,307.495 909.228,309.351C908.268,310.119 907.324,310.775 906.396,311.319C905.468,311.863 904.444,312.295 903.324,312.615C902.204,312.935 900.94,313.159 899.532,313.287C898.124,313.415 896.524,313.479 894.732,313.479L872.844,313.479L872.844,335.847ZM891.372,302.055C893.228,302.055 894.716,301.927 895.836,301.671C896.956,301.415 897.868,300.935 898.572,300.231C899.468,299.527 900.156,298.455 900.636,297.015C901.116,295.575 901.356,293.959 901.356,292.167C901.356,290.055 900.94,288.263 900.108,286.791C899.276,285.319 898.124,284.327 896.652,283.815C895.564,283.431 893.9,283.239 891.66,283.239L872.844,283.239L872.844,302.055L891.372,302.055Z" style="fill:white;fill-rule:nonzero;"/>
            <path d="M977.004,335.847L963.372,335.847L963.372,309.447L938.7,309.447L938.7,335.847L925.068,335.847L925.068,271.815L938.7,271.815L938.7,298.023L963.372,298.023L963.372,271.815L977.004,271.815L977.004,335.847Z" style="fill:white;fill-rule:nonzero;"/>
        </g>
        <g transform="matrix(1.15481,0,0,1.15481,-42.01,-56.9673)">
            <path d="M272.008,313.71L272.008,326.465C252.882,330.598 238.532,347.629 238.532,367.984C238.532,388.339 252.882,405.37 272.008,409.503L272.008,422.258C245.923,417.958 226,395.279 226,367.984C226,340.689 245.923,318.01 272.008,313.71ZM290.008,313.71C316.093,318.01 336.016,340.689 336.016,367.984C336.016,395.279 316.093,417.958 290.008,422.258L290.008,409.503C309.134,405.37 323.484,388.339 323.484,367.984C323.484,347.629 309.134,330.598 290.008,326.465L290.008,313.71Z" style="fill:white;"/>
        </g>
    </g>
    <g transform="matrix(0.751404,-0.751404,0.751404,0.751404,-317.817,634.933)">
        <path d="M552.041,46.363C542.153,36.763 537.209,24.547 537.209,9.715C537.209,-5.117 542.153,-17.357 552.041,-27.005C561.929,-36.653 574.025,-41.477 588.329,-41.477C598.985,-41.477 608.465,-38.861 616.769,-33.629C625.073,-28.397 631.097,-20.981 634.841,-11.381L615.113,-11.381C609.737,-21.461 600.809,-26.501 588.329,-26.501C578.249,-26.501 570.017,-23.189 563.633,-16.565C557.249,-9.941 554.057,-1.181 554.057,9.715C554.057,20.611 557.249,29.371 563.633,35.995C570.017,42.619 577.961,45.931 587.465,45.931C596.969,45.931 604.529,43.411 610.145,38.371C615.761,33.331 619.145,29.153 620.297,20.513L582.713,20.513L582.713,5.035L637.865,5.035L637.865,17.851C636.329,29.851 630.953,40.003 621.737,48.307C612.521,56.611 601.073,60.763 587.393,60.763C573.713,60.763 561.929,55.963 552.041,46.363Z" style="fill:rgb(81,144,215);fill-rule:nonzero;"/>
    </g>
</svg>
